Coordinates
version=1
nRows=14
nColumns=42
inDegrees=yes

Units are S.I. units (second, meters, Newtons, ...)
If the header above contains a line with 'inDegrees', this indicates whether rotational values are in degrees (yes) or radians (no).

endheader
time	pelvis_tilt	pelvis_list	pelvis_rotation	pelvis_tx	pelvis_ty	pelvis_tz	hip_flexion_r	hip_adduction_r	hip_rotation_r	knee_angle_r	knee_adduction_r	knee_angle_r_beta	ankle_angle_r	subtalar_angle_r	mtp_angle_r	hip_flexion_l	hip_adduction_l	hip_rotation_l	knee_angle_l	knee_adduction_l	knee_angle_l_beta	ankle_angle_l	subtalar_angle_l	mtp_angle_l	lumbar_extension	lumbar_bending	lumbar_rotation	arm_flex_r	arm_add_r	arm_rot_r	elbow_flex_r	pro_sup_r	wrist_flex_r	wrist_dev_r	arm_flex_l	arm_add_l	arm_rot_l	elbow_flex_l	pro_sup_l	wrist_flex_l	wrist_dev_l
      0.53000000	     18.22610507	     -2.10300526	     -6.93652770	     -1.39540488	      0.95394127	      0.19568801	    -29.42961798	      0.66681562	    -22.47426707	     26.44622161	     -9.42797529	      0.46157364	     23.71180037	     33.15691181	     -9.36749673	     14.25384272	     -1.62024260	    -30.37978354	     23.31600569	     -8.43402080	      0.40694107	      1.65136347	     22.78120016	     -9.36749673	    -41.90084501	     -0.84109628	     11.55554587	     14.59405565	    -20.39353003	      5.47437393	     64.83990639	     90.00000001	      0.00000000	      0.00000000	     -8.23002201	    -12.45625042	     -3.60102812	     45.12312049	     90.00000001	      0.00000000	      0.00000000
      0.54000000	     18.26383901	     -1.92814157	     -7.04828038	     -1.38035801	      0.95345264	      0.19540911	    -29.47105799	      0.14213897	    -21.31310908	     28.27672264	     -9.43069635	      0.49352191	     21.65698666	     31.87863063	     -9.27867341	     14.31887783	     -1.03629747	    -28.95294212	     24.92578780	     -8.87520764	      0.43503707	      0.74944634	     20.26007286	     -9.27867341	    -41.80282777	     -1.17526006	     11.42331899	     14.28623253	    -20.10489203	      5.06557972	     64.49891092	     90.00000001	      0.00000000	      0.00000000	     -8.06814900	    -12.48908940	     -3.37357948	     44.86135995	     90.00000001	      0.00000000	      0.00000000
      0.55000000	     18.38571402	     -1.63407107	     -7.07778639	     -1.36525205	      0.95344525	      0.19495379	    -29.45392872	     -0.47591923	    -20.04242051	     30.37655725	     -9.30696700	      0.53017094	     19.30664954	     30.11416992	     -9.16116387	     14.18575960	     -0.16904820	    -26.34102877	     26.60890911	     -8.89261754	      0.46441307	      0.08283696	     15.90949963	     -9.16116387	    -41.77640022	     -1.59135025	     11.16735931	     13.92574953	    -19.81144193	      4.63285804	     64.21461151	     90.00000001	      0.00000000	      0.00000000	     -7.83939553	    -12.58084664	     -3.09322460	     44.67330752	     90.00000001	      0.00000000	      0.00000000
      0.56000000	     18.58792876	     -1.33672611	     -7.02304394	     -1.35006711	      0.95397865	      0.19442415	    -29.40799508	     -1.02717253	    -18.58996844	     32.62078434	     -9.07739747	      0.56934009	     16.25979371	     27.94820991	     -9.06534485	     13.88260366	      0.72291257	    -23.26882245	     28.36401681	     -8.60945736	      0.49504548	     -0.37020216	     11.64400353	     -9.06534485	    -41.83339773	     -1.97465379	     10.86740813	     13.51778286	    -19.51881122	      4.17583362	     63.91266472	     90.00000001	      0.00000000	      0.00000000	     -7.53419434	    -12.68724087	     -2.82856662	     44.50958685	     90.00000001	      0.00000000	      0.00000000
      0.57000000	     18.88438492	     -0.95620492	     -6.95316234	     -1.33486357	      0.95504961	      0.19378950	    -29.31954939	     -1.64977099	    -16.85644303	     35.08615396	     -8.61554932	      0.61236891	     12.90058218	     25.07724821	     -8.96540832	     13.34260449	      1.71675286	    -20.00395738	     30.01381861	     -8.00578404	      0.52383996	     -0.60663919	      7.06743174	     -8.96540832	    -42.00193179	     -2.43565442	     10.52606250	     13.04170462	    -19.23806831	      3.66033136	     63.64275632	     90.00000001	      0.00000000	      0.00000000	     -7.15083861	    -12.80995574	     -2.53710109	     44.38231865	     90.00000001	      0.00000000	      0.00000000
      0.58000000	     19.24222941	     -0.57253153	     -6.84882944	     -1.31960732	      0.95656091	      0.19312793	    -29.15873792	     -2.24364734	    -14.92781289	     37.72636412	     -7.95042917	      0.65844927	      9.34534339	     21.75935989	     -8.87028911	     12.61101362	      2.66664193	    -17.01589189	     31.48215129	     -7.29677982	      0.54946720	     -0.52105103	      3.18435601	     -8.87028911	    -42.22950455	     -2.89555059	     10.19098430	     12.50125442	    -18.96195435	      3.10703000	     63.41437333	     90.00000001	      0.00000000	      0.00000000	     -6.69966693	    -12.97168579	     -2.26558553	     44.31965210	     90.00000001	      0.00000000	      0.00000000
      0.59000000	     19.63896657	     -0.18908994	     -6.76474997	     -1.30442401	      0.95843265	      0.19251531	    -28.85913324	     -2.80626682	    -12.83899960	     40.55016034	     -7.15550382	      0.70773381	      5.80849115	     17.97911087	     -8.78134097	     11.69594121	      3.50448274	    -14.63065809	     32.69263369	     -6.53307041	      0.57059410	     -0.08543182	      0.19508108	     -8.78134097	    -42.49510358	     -3.35674323	      9.85829936	     11.95171683	    -18.67664626	      2.56641927	     63.19617975	     90.00000001	      0.00000000	      0.00000000	     -6.22640534	    -13.13371876	     -2.00451104	     44.30390030	     90.00000001	      0.00000000	      0.00000000
      0.60000000	     20.04517290	      0.20206181	     -6.62591538	     -1.28949015	      0.96046055	      0.19182671	    -28.40800059	     -3.32982888	    -10.72667723	     43.50586960	     -6.20313731	      0.75932067	      2.58085681	     14.02545249	     -8.70094425	     10.69246706	      4.30927220	    -13.02972254	     33.63475668	     -6.09151630	      0.58703725	      0.71406930	     -1.57149691	     -8.70094425	    -42.74552683	     -3.72795127	      9.43740833	     11.47344345	    -18.47028001	      2.18755643	     62.88562729	     90.00000001	      0.00000000	      0.00000000	     -5.75875822	    -13.29200291	     -1.78501253	     44.36481639	     90.00000001	      0.00000000	      0.00000000
      0.61000000	     20.55624591	      0.55979856	     -6.51349521	     -1.27497458	      0.96263090	      0.19128250	    -27.86624820	     -3.79369445	     -8.71968377	     46.57794785	     -5.27602218	      0.81293855	     -0.18702056	     10.03127861	     -8.63092457	      9.46307102	      4.96324128	    -12.38274343	     34.25930705	     -5.89720471	      0.59793771	      1.85704950	     -2.02214577	     -8.63092457	    -42.98909934	     -3.97554398	      8.86616931	     11.25183080	    -18.24958252	      2.16374886	     62.39348576	     90.00000001	      0.00000000	      0.00000000	     -5.38695971	    -13.48211425	     -1.62749711	     44.47905097	     90.00000001	      0.00000000	      0.00000000
      0.62000000	     21.15171549	      0.89687933	     -6.41884139	     -1.26083368	      0.96493231	      0.19082240	    -27.25950491	     -4.21024671	     -6.75547691	     49.66399977	     -4.30030181	      0.86680032	     -2.31325953	      5.91043384	     -8.56216236	      8.04681989	      5.50990851	    -12.72437201	     34.57074089	     -6.08165368	      0.60337325	      3.24170337	     -1.30119063	     -8.56216236	    -43.21069272	     -4.09642829	      8.13487531	     11.23241917	    -18.04977521	      2.48459751	     61.76214569	     90.00000001	      0.00000000	      0.00000000	     -5.11452178	    -13.69175041	     -1.54058287	     44.62350505	     90.00000001	      0.00000000	      0.00000000
      0.63000000	     21.58846070	      1.20298642	     -6.32160209	     -1.24679542	      0.96729224	      0.19042568	    -26.34348576	     -4.52906533	     -5.13291923	     52.65885120	     -3.53525266	      0.91907033	     -3.76030609	      1.98684247	     -8.50666393	      6.68537179	      5.92798091	    -13.71480666	     34.58644728	     -6.49388528	      0.60364738	      4.72764351	      0.37969756	     -8.50666393	    -43.30333276	     -4.19580594	      7.45993723	     11.16055474	    -17.83314415	      2.72147174	     61.16915757	     90.00000001	      0.00000000	      0.00000000	     -4.83441477	    -13.89743009	     -1.52423455	     44.83572997	     90.00000001	      0.00000000	      0.00000000
      0.64000000	     21.65722941	      1.44941466	     -6.26037308	     -1.23261823	      0.96969599	      0.19003791	    -24.91963720	     -4.75107078	     -3.56065362	     55.49607951	     -2.76626112	      0.96858931	     -4.65684551	     -1.79204809	     -8.45032544	      5.61364347	      6.18977867	    -15.22709934	     34.32645129	     -7.09781201	      0.59910960	      6.13234461	      2.81531568	     -8.45032544	    -43.25226337	     -4.40531578	      7.23625726	     10.63244117	    -17.71693160	      2.36848755	     61.03038026	     90.00000001	      0.00000000	      0.00000000	     -4.33275901	    -14.01954925	     -1.54622268	     45.16769604	     90.00000001	      0.00000000	      0.00000000
      0.65000000	     21.41773246	      1.85943184	     -6.20092733	     -1.21827668	      0.97223093	      0.18946447	    -23.01228983	     -5.16042075	     -3.35047043	     58.06769534	     -3.02517407	      1.01347247	     -4.37878985	     -3.06377717	     -8.43394325	      4.63405315	      6.69542181	    -15.94313827	     33.62316608	     -7.26513215	      0.58683495	      6.90095419	      3.48838898	     -8.43394325	    -43.10494108	     -4.90395891	      7.19355659	      9.83643016	    -17.78336870	      2.10218598	     60.88834054	     90.00000001	      0.00000000	      0.00000000	     -3.67361539	    -14.12067752	     -1.59454608	     45.59887240	     90.00000001	      0.00000000	      0.00000000
      0.66000000	     21.07053691	      2.12010606	     -6.15031045	     -1.20410705	      0.97490295	      0.18898637	    -20.93847050	     -5.33641062	     -3.16414876	     60.29561652	     -3.40795736	      1.05235703	     -3.73647088	     -4.73485954	     -8.41961775	      3.68373812	      6.97807433	    -16.63370237	     32.80468178	     -7.32088642	      0.57254971	      7.58508442	      4.46120880	     -8.41961775	    -42.86900792	     -5.27168683	      7.24983118	      9.14826357	    -17.83678908	      1.68253804	     60.83395166	     90.00000001	      0.00000000	      0.00000000	     -2.98714569	    -14.18458407	     -1.63087776	     46.10045413	     90.00000001	      0.00000000	      0.00000000
